<?xml version="1.0" encoding="utf-8"?>
<!-- Generator: Adobe Illustrator 21.1.0, SVG Export Plug-In . SVG Version: 6.00 Build 0)  -->
<svg version="1.1" xmlns="http://www.w3.org/2000/svg" xmlns:xlink="http://www.w3.org/1999/xlink" x="0px" y="0px"
	 viewBox="0 0 1920 1080" style="enable-background:new 0 0 1920 1080;" xml:space="preserve">
<style type="text/css">
	.st0{display:none;}
	.st1{fill:#FFFFFF;}
</style>
<g id="Layer_1">
</g>
<g id="Layer_2">
	<rect x="-0.5" y="-0.5" class="st0" width="1920" height="1080"/>
	<g>
		<polygon class="st1" points="513.8,497.4 521.9,519.4 487.1,519.4 495.2,497.5 489.4,497.5 469.8,549.6 475.9,549.6 485.1,524.6 
			523.9,524.6 533.2,549.6 539.4,549.6 519.8,497.4 		"/>
		<polygon class="st1" points="561.5,497.4 555.7,497.4 555.7,549.6 604.8,549.6 604.8,544.3 561.5,544.3 		"/>
		<polygon class="st1" points="499.6,485.5 504.5,472.2 509.4,485.4 515.3,485.4 507.8,465.6 501.4,465.6 493.9,485.5 		"/>
		<path class="st1" d="M672.8,497.2v1.1c0,8-4,12-12,12H628v-13.1l-5.8,0v52.3h5.8v-34h33.1c11.7,0,17.5-5.8,17.5-17.5v-0.9
			L672.8,497.2z"/>
		<polygon class="st1" points="751,497.1 751,503.9 703.6,503.9 703.6,497.2 697.8,497.2 697.8,549.6 703.6,549.6 703.6,509.2 
			751,509.2 751,549.6 756.7,549.6 756.7,497.1 		"/>
		<rect x="751" y="465.6" class="st1" width="5.8" height="19.5"/>
		<polygon class="st1" points="803,485.1 807.7,472.2 812.5,485 818.4,485 811.1,465.6 804.6,465.6 797.3,485.1 		"/>
		<path class="st1" d="M628,485.3v-14.4h32.9c8,0,12,4,12,12v2.4l5.8,0v-2.1c0-11.7-5.8-17.5-17.5-17.5h-38.9v19.7L628,485.3z"/>
		<rect x="555.7" y="465.6" class="st1" width="5.8" height="19.8"/>
		<rect x="697.8" y="465.6" class="st1" width="5.8" height="19.6"/>
		<rect x="1281.1" y="465.6" class="st1" width="5.8" height="84"/>
		<polygon class="st1" points="1365.9,540.6 1317.1,465.6 1311.1,465.6 1311.1,549.6 1316.6,549.6 1316.6,474.2 1365.8,549.6 
			1371.5,549.6 1371.5,465.6 1365.9,465.6 		"/>
		<polygon class="st1" points="1447.8,470.9 1447.8,465.6 1395.7,465.6 1395.7,549.6 1447.8,549.6 1447.8,544.3 1401.5,544.3 
			1401.5,509.2 1440.9,509.2 1440.9,503.9 1401.5,503.9 1401.5,470.9 		"/>
		<polygon class="st1" points="816.9,497 825.2,519.4 790.3,519.4 798.5,497.1 792.8,497.1 773,549.6 779.2,549.6 788.4,524.6 
			827.1,524.6 836.4,549.6 842.6,549.6 822.9,497 		"/>
		<polygon class="st1" points="1251.1,503.9 1203.7,503.9 1203.7,465.6 1197.9,465.6 1197.9,549.6 1203.7,549.6 1203.7,509.2 
			1251.1,509.2 1251.1,549.6 1256.9,549.6 1256.9,465.6 1251.1,465.6 		"/>
		<path class="st1" d="M922.8,507l-25-6.2c-3.8-1-6.5-2.3-7.9-3.9c-1.4-1.6-2.2-4.1-2.2-7.5v-6.7c0-4.2,1-7.2,2.9-9.1
			c1.9-1.9,5-2.9,9.1-2.9h20c4.2,0,7.3,1,9.2,2.9c1.9,1.9,2.8,5,2.8,9.1v6.2h5.8v-5.8c0-11.7-5.8-17.5-17.5-17.5h-20.5
			c-11.7,0-17.5,5.8-17.5,17.5v6.6c0,5,1.2,8.6,3.7,10.9c2.5,2.3,6.5,4.2,12.1,5.6l25,6.2c3.8,1,6.5,2.3,7.9,3.9
			c1.4,1.6,2.2,4.1,2.2,7.5v8.6c0,4.2-1,7.2-2.9,9.1s-5,2.9-9.1,2.9h-21.5c-4.2,0-7.2-1-9.1-2.9s-2.9-5-2.9-9.1V525h-5.8v7.1
			c0,11.7,5.8,17.5,17.5,17.5h22c11.7,0,17.5-5.8,17.5-17.5v-8.5c0-5-1.2-8.6-3.7-10.9C932.4,510.3,928.4,508.4,922.8,507z"/>
		<path class="st1" d="M1009.9,532.3c0,4.2-1,7.2-2.9,9.1s-5,2.9-9.1,2.9h-21.7c-4.2,0-7.2-1-9.1-2.9s-2.9-5-2.9-9.1v-66.7h-5.8
			v66.5c0,11.7,5.8,17.5,17.5,17.5h22.2c11.7,0,17.5-5.8,17.5-17.5v-66.5h-5.8V532.3z"/>
		<polygon class="st1" points="1093.5,540.6 1044.7,465.6 1038.7,465.6 1038.7,549.6 1044.2,549.6 1044.2,474.2 1093.4,549.6 
			1099.1,549.6 1099.1,465.6 1093.5,465.6 		"/>
		<path class="st1" d="M1161.1,507l-25-6.2c-3.8-1-6.5-2.3-7.9-3.9c-1.4-1.6-2.2-4.1-2.2-7.5v-6.7c0-4.2,1-7.2,2.9-9.1
			c1.9-1.9,5-2.9,9.1-2.9h20c4.2,0,7.3,1,9.2,2.9c1.9,1.9,2.8,5,2.8,9.1v6.2h5.8v-5.8c0-11.7-5.8-17.5-17.5-17.5h-20.5
			c-11.7,0-17.5,5.8-17.5,17.5v6.6c0,5,1.2,8.6,3.7,10.9c2.5,2.3,6.5,4.2,12.1,5.6l25,6.2c3.8,1,6.5,2.3,7.9,3.9
			c1.4,1.6,2.2,4.1,2.2,7.5v8.6c0,4.2-1,7.2-2.9,9.1s-5,2.9-9.1,2.9h-21.5c-4.2,0-7.2-1-9.1-2.9s-2.9-5-2.9-9.1V525h-5.8v7.1
			c0,11.7,5.8,17.5,17.5,17.5h22c11.7,0,17.5-5.8,17.5-17.5v-8.5c0-5-1.2-8.6-3.7-10.9C1170.7,510.3,1166.7,508.4,1161.1,507z"/>
	</g>
</g>
</svg>
